<svg xmlns="http://www.w3.org/2000/svg" viewBox="0 0 613.9 131.3">
    <defs><style>.cls-1{fill:#21cf68;}.cls-2{fill:#fb5138;}.cls-3{fill:#1267fa;}.cls-4{fill:#232323;}</style></defs>
    <g>
        <g>
            <path class="cls-1" d="M86.2,41.6a4.78,4.78,0,0,0,4.9,0L111,30.2,100.3,24h0L58.7,0l-7,4c-.4.2-.7.4-1.1.6L5.9,30.3,25.7,41.8a4.78,4.78,0,0,0,4.9,0l10-5.7,13-7.5a9.57,9.57,0,0,1,9.8,0l10.2,5.9Z"></path>
            <path class="cls-2" d="M94.7,56V82.3a9.83,9.83,0,0,1-4.9,8.5L66.5,104.2a4.91,4.91,0,0,0-2.4,4.2v22.9l45-25.9c.1,0,.1-.1.2-.1l7.8-4.5V40.3L97.3,51.7A4.74,4.74,0,0,0,94.7,56Z"></path>
            <path class="cls-3" d="M49.8,103.9l-22.6-13a10,10,0,0,1-4.9-8.5V56a4.79,4.79,0,0,0-2.4-4.2L0,40.4H0V91.8H0v9.1l7,4a8.79,8.79,0,0,0,1,.6L52.3,131V108.1A5.1,5.1,0,0,0,49.8,103.9Z"></path>
            <path class="cls-4" d="M150,36.9h34.3l-.5,1.5-3.2,9.7H153.8v62.4h68.4c6.8,0,10.8-3.9,10.8-10.5V48.1H196.5l3.7-11.3h37V25.5H150Zm69.6,57.5c0,3.1-1.8,5.2-4.7,5.2h-47V83.9h51.6V94.4Zm-.1-35.8V73.4H168V58.7h51.5Z"></path>
            <path class="cls-4" d="M324.2,39.6H312v3.1H283.5V39.6H271.3v3.1h-7.8v9.9h7.8V69.8h47.2a5.7,5.7,0,0,0,5.7-5.7V52.6H332V42.7h-7.8ZM312,57a2.9,2.9,0,0,1-2.9,2.9H283.5V52.5H312Z"></path>
            <path class="cls-4" d="M299.9,20.8H285.3v4.7H247V89.9c0,11-1.6,17.2-3,20.6h12.9a76.15,76.15,0,0,0,2.4-20.6V35.4H332V25.5H299.9Z"></path>
            <path class="cls-4" d="M310,98.2l-1.1-.4,1.1-.6c7.9-4.2,17.2-9.5,19-10.5V75.5H265.9V86.7c1.7,1,11,6.2,19,10.5l1.1.6-1.1.4c-4.3,1.6-7.4,2.5-9.1,2.5H262.9v9.8H277c1.6,0,5.8,0,20.1-6.8l.1-.1h.4l.1.1c14.2,6.7,18.5,6.7,20.1,6.7H332v-9.8H319.1C317.4,100.7,314.3,99.9,310,98.2Zm-12.6-5.5c-1-.1-14.2-6.6-15.6-7.3l.3-1h30.6l.3,1C310.1,86.9,298.4,92.4,297.4,92.7Z"></path>
            <path class="cls-4" d="M613.9,66.8V55.3H531.3V66.8h14.6L532,100.6v9.9h69.8a10.29,10.29,0,0,0,10.3-10.3V84.4H600.6V95.6a3.37,3.37,0,0,1-3.4,3.4H545.3l13.4-32.3h55.2Z"></path>
            <rect class="cls-4" x="533.6" y="24.3" width="79.9" height="11.5"></rect>
            <path class="cls-4" d="M351,55.6h-9.1V66.1h10.8a9.43,9.43,0,0,0,7.7-4l3.2-4.6,4.8,5.7a9.22,9.22,0,0,0,6.7,2.9H385V55.6h-7.8a3,3,0,0,1-2.3-1l-3-4h14V40.4H369.8V36h16.1V25.8H359.2l2.6-3.5H349l-3.2,4.3a2.58,2.58,0,0,1-1.9,1h-2.3V37.8h5.1a6.92,6.92,0,0,0,4.7-1.8h6.2v4.4H341.8V50.6h14L354,53.9A3.52,3.52,0,0,1,351,55.6Z"></path>
            <path class="cls-4" d="M388.3,66.3h28.8a10.5,10.5,0,0,0,10.5-10.5V24.1H388.3Zm11.2-31h16.9V51.7a3.54,3.54,0,0,1-3.5,3.5H399.5Z"></path>
            <path class="cls-4" d="M414.3,68.7H343.7v41.8H415A10.5,10.5,0,0,0,425.5,100V68.7Zm0,28.7a2.43,2.43,0,0,1-2.4,2.4h-57V94.9h59.4Zm0-13.5H354.9V79.4h59.4Z"></path>
            <path class="cls-4" d="M470.4,36.3a2.26,2.26,0,0,1-2.3,2.3H453.4l12.3-15.8h-14L438.1,40.1v9h34.2a8.81,8.81,0,0,0,8.8-8.8V33.4H470.6v2.9Z"></path>
            <path class="cls-4" d="M494.6,50.5V41.3H510A10,10,0,0,0,519.9,31V23.7H508.7v4.4a1.9,1.9,0,0,1-1.9,1.9H494.7V22.9H483.8V54a10.5,10.5,0,0,0,10.5,10.5h27.2V53.6H497.8A3,3,0,0,1,494.6,50.5Z"></path>
            <path class="cls-4" d="M494.6,96.4V88h16.5a8.81,8.81,0,0,0,8.8-8.8V70.4H508.7V75a1.79,1.79,0,0,1-1.8,1.8H494.6V68.4H483.7V100a10.5,10.5,0,0,0,10.5,10.5h27.2V99.6H497.7A3.2,3.2,0,0,1,494.6,96.4Z"></path>
            <path class="cls-4" d="M439.9,52.4v58.1h11.2V99.6h0V96.4h17.5V97a3.59,3.59,0,0,1-3.6,3.6v9.9h3.9a10.82,10.82,0,0,0,10.8-10.8V52.4H439.9Zm11.2,11.2h17.5v5.2H451.1Zm0,16.4h17.5v5.2H451.1Z"></path>
        </g>
    </g>
</svg>