<svg xmlns="http://www.w3.org/2000/svg" width="111" height="38" viewBox="0 0 111 38">
  <g fill="#00a0ff" transform="translate(-1)">
    <path d="M30.8,4.1 L30.8,4.1 L30.8,4.1 L30.8,4.1 L30.8,4.1 C30.1,3.6 29.4,3.1 28.6,2.7 C28.1,2.4 27.4,2.5 27,3 L22.3,9.2 L22,9.6 C21.5,10.3 20.7,10.6 19.9,10.6 L19,10.6 C16.7,10.7 14.4,11.9 12.9,13.9 C11.7,15.5 11.1,17.4 11.2,19.3 C11.2,19.6 11.4,19.9 11.7,20.1 C12.3,20.4 12.8,21 13,21.7 C13.2,22.8 12.5,23.8 11.5,24.1 C10.3,24.5 9,23.7 8.7,22.5 C8.5,21.8 8.7,21.2 9.1,20.7 C9.3,20.4 9.4,20.1 9.4,19.7 C9.2,17.3 9.8,14.8 11.4,12.7 C13.4,10.1 16.4,8.7 19.5,8.7 C20.1,8.7 20.6,8.4 21,7.9 L25.3,2.2 C25.6,1.8 25.4,1.1 24.9,1 C17.7,-1 9.7,1.4 4.8,7.7 C-1.4,15.8 0.1,27.5 8.2,33.8 C9,34.4 9.7,34.9 10.6,35.4 C11.1,35.7 11.8,35.6 12.2,35.1 L16.9,28.9 L17.2,28.5 C17.7,27.8 18.5,27.5 19.3,27.5 L20.2,27.5 C22.5,27.4 24.8,26.2 26.3,24.2 C27.5,22.6 28.1,20.7 28,18.8 C28,18.5 27.8,18.2 27.5,18 C26.9,17.7 26.4,17.1 26.2,16.4 C26,15.3 26.7,14.3 27.7,14 C28.9,13.6 30.2,14.4 30.5,15.6 C30.7,16.3 30.5,16.9 30.1,17.4 C29.9,17.7 29.8,18 29.8,18.4 C30,20.8 29.4,23.3 27.8,25.4 C25.8,28 22.8,29.4 19.7,29.4 C19.1,29.4 18.6,29.7 18.2,30.2 L14,35.6 C13.7,36 13.9,36.7 14.4,36.8 C21.6,38.9 29.7,36.5 34.5,30.1 C40.7,22 39,10.3 30.8,4.1 Z"/>
    <g transform="translate(43 8)">
      <path d="M18.6,2 L18.6,1.6 C18.6,1.2 18.3,1 18,1 L3.5,1 C3.2,1 2.9,1.3 2.9,1.6 L2.9,2.5 C2.9,2.8 3.2,3.1 3.5,3.1 L15.8,3.1 C16.2,3.1 16.4,3.4 16.4,3.8 C16.1,6.1 15,10.4 11.6,14.5 C11.4,14.8 10.9,14.8 10.7,14.5 C7.9,10.9 7,7.2 6.8,5.8 C6.7,5.5 6.5,5.3 6.2,5.3 L5.7,5.3 L5.3,5.3 C5,5.3 4.7,5.6 4.8,6 C5.1,7.6 6.1,11.9 9.5,16 C9.7,16.2 9.7,16.6 9.5,16.8 C5.5,20.5 1.8,21.3 0.5,21.5 C0.2,21.5 7.10542736e-15,21.8 7.10542736e-15,22.1 L7.10542736e-15,23 C7.10542736e-15,23.3 0.3,23.6 0.6,23.6 C2.1,23.4 6.3,22.5 10.8,18.3 C11,18.1 11.4,18.1 11.6,18.3 C13.8,20.3 16.6,22.3 20.4,23.5 C20.7,23.6 21,23.4 21.1,23.1 L21.4,22.3 C21.5,22 21.3,21.7 21,21.6 C17.5,20.5 15,18.7 13,16.9 C12.8,16.7 12.8,16.3 13,16.1 C18.5,9.4 18.6,2.3 18.6,2 Z"/>
      <path d="M28.6,0.1 L27.7,0.1 C27.4,0.1 27.1,0.4 27.1,0.7 L27.1,3.8 C27.1,4.1 26.8,4.4 26.5,4.4 L24.4,4.4 C24.1,4.4 23.8,4.7 23.8,5 L23.8,5.9 C23.8,6.2 24.1,6.5 24.4,6.5 L26.5,6.5 C26.8,6.5 27.1,6.8 27.1,7.1 L27.1,11.6 C27.1,11.9 26.8,12.2 26.5,12.2 L24.4,12.2 C24.1,12.2 23.8,12.5 23.8,12.8 L23.8,13.7 C23.8,14 24.1,14.3 24.4,14.3 L26.5,14.3 C26.8,14.3 27.1,14.6 27.1,14.9 L27.1,19.2 C27.1,20.1 26.7,21.6 24.4,21.8 C24.1,21.8 23.9,22.1 23.9,22.4 L23.9,23 C23.9,23.3 24.2,23.6 24.5,23.6 C26.8,23.4 29.2,22.1 29.2,18.9 L29.2,14.6 C29.2,14.3 29.5,14 29.8,14 L31.7,14 C32,14 32.3,13.7 32.3,13.4 L32.3,12.5 C32.3,12.2 32,11.9 31.7,11.9 L29.8,11.9 C29.5,11.9 29.2,11.6 29.2,11.3 L29.2,6.8 C29.2,6.5 29.5,6.2 29.8,6.2 L31.7,6.2 C32,6.2 32.3,5.9 32.3,5.6 L32.3,4.7 C32.3,4.4 32,4.1 31.7,4.1 L29.8,4.1 C29.5,4.1 29.2,3.8 29.2,3.5 L29.2,0.6 C29.2,0.3 29,0.1 28.6,0.1 Z"/>
      <path d="M33.2,22.8 C33.2,23.1 33.5,23.4 33.8,23.4 L40.3,23.4 C43.2,23.4 45.5,21.2 45.5,18.4 L45.5,4.7 C45.5,4.4 45.2,4.1 44.9,4.1 L33.8,4.1 C33.5,4.1 33.2,4.4 33.2,4.7 L33.2,22.8 Z M40.4,21.4 L35.9,21.4 C35.6,21.4 35.3,21.1 35.3,20.8 L35.3,14.6 C35.3,14.3 35.6,14 35.9,14 L43,14 C43.3,14 43.6,14.3 43.6,14.6 L43.6,18.4 C43.6,20.1 42.1,21.4 40.4,21.4 Z M43.6,6.7 L43.6,11.4 C43.6,11.7 43.3,12 43,12 L35.9,12 C35.6,12 35.3,11.7 35.3,11.4 L35.3,6.7 C35.3,6.4 35.6,6.1 35.9,6.1 L43,6.1 C43.3,6.2 43.6,6.4 43.6,6.7 Z"/>
      <path d="M42.1,0 L36.3,0 C36,0 35.7,0.3 35.7,0.6 L35.7,1.5 C35.7,1.8 36,2.1 36.3,2.1 L42.1,2.1 C42.4,2.1 42.7,1.8 42.7,1.5 L42.7,0.6 C42.7,0.3 42.5,0 42.1,0 Z"/>
      <path d="M64.2,0.9 L52.2,0.9 C51.9,0.9 51.6,1.2 51.6,1.5 L51.6,2.4 C51.6,2.7 51.9,3 52.2,3 L64.2,3 C64.5,3 64.8,2.7 64.8,2.4 L64.8,1.5 C64.8,1.2 64.5,0.9 64.2,0.9 Z"/>
      <path d="M59.1,11.2 L67.5,11.2 C67.8,11.2 68.1,10.9 68.1,10.6 L68.1,9.7 C68.1,9.4 67.8,9.1 67.5,9.1 L48.9,9.1 C48.6,9.1 48.3,9.4 48.3,9.7 L48.3,10.6 C48.3,10.9 48.6,11.2 48.9,11.2 L54.6,11.2 C55.1,11.2 55.3,11.7 55.1,12.1 L51.3,19 C51.2,19.2 51.1,19.3 51.1,19.5 C50.8,20.4 50.9,21.4 51.5,22.2 C52.1,23 53.1,23.6 54.2,23.6 L64.6,23.6 C65.1,23.6 65.5,23.4 65.7,23 C65.9,22.6 66,22.1 65.8,21.7 L63.4,17 C63.3,16.7 62.9,16.6 62.6,16.8 L61.8,17.2 C61.5,17.3 61.4,17.7 61.6,18 L63,20.8 C63.2,21.2 62.9,21.6 62.5,21.6 L54.2,21.6 C53.8,21.6 53.4,21.4 53.2,21.1 C53.1,21 52.9,20.7 53,20.3 C53,20.2 53,20.2 53.1,20.1 L57.7,12 C58,11.5 58.5,11.2 59.1,11.2 Z"/>
    </g>
  </g>
</svg>
