<?xml version="1.0" standalone="no"?><!DOCTYPE svg PUBLIC "-//W3C//DTD SVG 1.1//EN" "http://www.w3.org/Graphics/SVG/1.1/DTD/svg11.dtd"><svg t="1637221202216" class="icon" viewBox="0 0 1024 1024" version="1.1" xmlns="http://www.w3.org/2000/svg" p-id="4835" xmlns:xlink="http://www.w3.org/1999/xlink" width="200" height="200"><defs><style type="text/css"></style></defs><path d="M706.975647 794.391579V389.422244c0-92.01467-74.570369-166.618808-166.574807-166.618809H72.149227c-3.610224 0-6.535857 2.90926-6.535857 6.482645v565.101405c0 3.573385 2.924609 6.469342 6.535857 6.469342h125.074623c3.611248 0 6.531763-2.911306 6.531764-6.505157V350.813924c0-3.601015 2.924609-6.522554 6.535856-6.522554h268.962732c50.507324 0 91.466178 40.939411 91.466178 91.452875v358.594122c0 3.597945 2.920516 6.502088 6.513344 6.502087H700.467419c3.584642 0 6.513344-2.902096 6.513344-6.469342l-0.005116 0.020467z m-252.57653-0.044003a6.492878 6.492878 0 0 1-6.50925 6.509251H322.844919c-3.611248 0-6.535857-2.911306-6.535857-6.509251V454.467679c0-3.597945 2.924609-6.51846 6.535857-6.518461h125.044948a6.503111 6.503111 0 0 1 6.50925 6.518461V794.364973v-0.017397m500.045737 0c0 3.601015-2.928702 6.509251-6.538926 6.509251H822.889633c-3.620457 0-6.564509-2.911306-6.564509-6.509251V229.346455c0-3.614317 2.944052-6.531763 6.564509-6.531763h125.016295a6.528694 6.528694 0 0 1 6.538926 6.531763v565.001121" p-id="4836" fill="#ff5e00"></path></svg>