<?xml version="1.0" standalone="no"?><!DOCTYPE svg PUBLIC "-//W3C//DTD SVG 1.1//EN" "http://www.w3.org/Graphics/SVG/1.1/DTD/svg11.dtd"><svg class="icon" width="200px" height="200px" viewBox="0 0 1024 1024" version="1.1" xmlns="http://www.w3.org/2000/svg"><path d="M469.134884 976.133953c-110.258605-9.763721-215.516279-59.534884-290.768372-137.168372-75.490233-78.109767-113.830698-154.552558-132.167442-263.858604-4.762791-28.338605-5.477209-95.970233-1.190698-123.832558 10.24-68.822326 33.101395-134.072558 64.297675-184.32 88.349767-142.407442 236.710698-226.470698 399.598139-226.470698 69.536744 0 132.167442 12.621395 192.416744 39.054884 52.628837 23.099535 110.496744 64.297674 149.313489 106.448372 60.725581 65.964651 91.92186 122.165581 114.783255 206.943256 18.098605 66.917209 18.574884 160.982326 1.428838 227.423255-19.289302 73.585116-45.484651 126.213953-92.636279 184.55814-40.96 50.96186-84.063256 86.92093-140.740466 117.402791-59.534884 32.148837-114.545116 48.104186-184.08186 53.819534-34.053953 2.857674-47.151628 2.857674-80.253023 0z m84.063256-238.615813c11.668837-5.00093 20.71814-19.051163 20.718139-32.625117 0-23.337674 4.524651-49.771163 10.47814-61.44 12.145116-23.813953 28.338605-32.148837 77.395348-39.769302 19.051163-2.857674 38.578605-6.906047 43.341396-8.811163 13.573953-5.953488 24.766512-17.384186 32.148837-33.339535 6.667907-14.526512 6.906047-15.955349 6.906047-53.105116-0.23814-41.19814-1.666977-50.247442-15.955349-87.15907-21.194419-55.486512-76.91907-110.734884-132.167442-130.738604-11.430698-4.048372-33.577674-9.525581-49.294884-12.383256-26.195349-4.286512-31.196279-4.524651-53.819535-1.905117-44.770233 5.23907-72.394419 14.050233-103.352558 32.625117-19.527442 11.906977-20.956279 13.097674-44.532093 36.435349-34.530233 34.053953-52.390698 67.155349-63.345116 116.688372-19.051163 86.92093 15.47907 178.604651 87.873488 233.853023 30.243721 23.099535 74.537674 41.674419 106.686512 44.770232 27.624186 2.857674 66.67907 1.190698 76.91907-3.095813z" fill="#3A25DD" /></svg>